<?xml version="1.0" encoding="UTF-8" standalone="no"?><!DOCTYPE svg PUBLIC "-//W3C//DTD SVG 1.1//EN" "http://www.w3.org/Graphics/SVG/1.1/DTD/svg11.dtd">
<svg width="100%" height="100%" viewBox="0 0 964 338" version="1.1"
     xmlns="http://www.w3.org/2000/svg"
     xmlns:xlink="http://www.w3.org/1999/xlink" xml:space="preserve"
     xmlns:serif="http://www.serif.com/" style="fill-rule:evenodd;clip-rule:evenodd;stroke-linecap:round;stroke-linejoin:round;stroke-miterlimit:1.5;">
    <style>
        :root{
            --text-color: #0FFFD3;
        }
        #desc,#decent-core{
            fill: var(--text-color);
            fill-rule:nonzero;
        }
        @media (prefers-color-scheme: dark) {
            :root{
                --text-color: #fff;
            }
        }

    </style>
    <g id="desc">
        <path d="M71.269,235.284c4.625,-0 8,1.083 10.125,3.25c2.125,2.166 2.729,5.395 1.812,9.687c-0.917,4.292 -2.812,7.521 -5.687,9.688c-2.875,2.166 -6.563,3.25 -11.063,3.25l-13,-0l-3.5,16.5c-0.208,0.916 -0.771,1.375 -1.687,1.375l-1.125,-0c-0.417,-0 -0.73,-0.125 -0.938,-0.375c-0.208,-0.25 -0.271,-0.584 -0.187,-1l8.687,-40.938c0.208,-0.958 0.771,-1.437 1.688,-1.437l14.875,-0Zm-17,22.125l11.875,-0c3.416,-0 6.302,-0.782 8.656,-2.344c2.354,-1.563 3.844,-3.844 4.469,-6.844c0.291,-1.5 0.416,-2.812 0.375,-3.937c-0.042,-1.125 -0.355,-2.084 -0.938,-2.875c-0.583,-0.792 -1.51,-1.386 -2.781,-1.782c-1.271,-0.395 -2.969,-0.593 -5.094,-0.593l-12.625,-0l-3.937,18.375Z"/>
        <path d="M86.519,260.284c0.541,-2.125 1.333,-4.073 2.375,-5.844c1.041,-1.771 2.281,-3.281 3.718,-4.531c1.438,-1.25 3.032,-2.23 4.782,-2.938c1.75,-0.708 3.604,-1.062 5.562,-1.062c4.5,-0 7.667,1.437 9.5,4.312c1.833,2.875 2.25,6.813 1.25,11.813l-0.187,0.937c-0.084,0.417 -0.292,0.75 -0.625,1c-0.334,0.25 -0.709,0.375 -1.125,0.375l-22.25,0c-0.292,1.542 -0.417,3.021 -0.375,4.438c0.041,1.416 0.312,2.656 0.812,3.718c0.5,1.063 1.281,1.917 2.344,2.563c1.062,0.646 2.469,0.969 4.219,0.969c1.625,-0 3.02,-0.167 4.187,-0.5c1.167,-0.334 2.136,-0.719 2.906,-1.157c0.771,-0.437 1.386,-0.885 1.844,-1.343c0.458,-0.459 0.813,-0.813 1.063,-1.063c0.458,-0.542 0.802,-0.864 1.031,-0.969c0.229,-0.104 0.573,-0.156 1.031,-0.156l1,0c0.375,0 0.677,0.115 0.906,0.344c0.23,0.229 0.282,0.531 0.157,0.906c-0.167,0.583 -0.563,1.313 -1.188,2.188c-0.625,0.875 -1.521,1.708 -2.687,2.5c-1.167,0.791 -2.594,1.468 -4.282,2.031c-1.687,0.562 -3.677,0.844 -5.968,0.844c-1.875,-0 -3.573,-0.355 -5.094,-1.063c-1.521,-0.708 -2.771,-1.687 -3.75,-2.937c-0.979,-1.25 -1.677,-2.761 -2.094,-4.532c-0.417,-1.77 -0.458,-3.718 -0.125,-5.843c0.083,-0.625 0.24,-1.459 0.469,-2.5c0.229,-1.042 0.427,-1.875 0.594,-2.5Zm23.625,0.562c0.375,-1.583 0.52,-3.062 0.437,-4.437c-0.083,-1.375 -0.417,-2.573 -1,-3.594c-0.583,-1.021 -1.427,-1.823 -2.531,-2.406c-1.104,-0.584 -2.469,-0.875 -4.094,-0.875c-1.583,-0 -3.062,0.291 -4.437,0.875c-1.375,0.583 -2.625,1.395 -3.75,2.437c-1.125,1.042 -2.073,2.25 -2.844,3.625c-0.771,1.375 -1.323,2.833 -1.656,4.375l19.875,0Z"/>
        <path d="M128.019,250.846c0.958,-1.458 2.239,-2.542 3.843,-3.25c1.605,-0.708 3.469,-1.062 5.594,-1.062l2.313,-0c0.916,-0 1.27,0.458 1.062,1.375l-0.187,0.875c-0.084,0.416 -0.271,0.75 -0.563,1c-0.292,0.25 -0.646,0.375 -1.062,0.375l-2.688,-0c-2.5,-0 -4.635,0.729 -6.406,2.187c-1.771,1.458 -2.927,3.438 -3.469,5.938l-4.125,19.375c-0.208,0.916 -0.771,1.375 -1.687,1.375l-1,-0c-0.417,-0 -0.73,-0.125 -0.938,-0.375c-0.208,-0.25 -0.271,-0.584 -0.187,-1l6.312,-29.688c0.083,-0.417 0.281,-0.76 0.594,-1.031c0.312,-0.271 0.677,-0.406 1.094,-0.406l1,-0c0.416,-0 0.729,0.135 0.937,0.406c0.208,0.271 0.271,0.614 0.188,1.031l-0.625,2.875Z"/>
        <path d="M160.769,270.346c0.166,-0.792 0.135,-1.479 -0.094,-2.062c-0.229,-0.584 -0.698,-1.115 -1.406,-1.594c-0.709,-0.479 -1.688,-0.938 -2.938,-1.375c-1.25,-0.438 -2.812,-0.886 -4.687,-1.344c-1.75,-0.417 -3.167,-0.958 -4.25,-1.625c-1.084,-0.667 -1.907,-1.406 -2.469,-2.219c-0.563,-0.812 -0.906,-1.677 -1.031,-2.593c-0.125,-0.917 -0.084,-1.855 0.125,-2.813c0.25,-1.083 0.666,-2.156 1.25,-3.219c0.583,-1.062 1.385,-2.01 2.406,-2.843c1.021,-0.834 2.271,-1.5 3.75,-2c1.479,-0.5 3.239,-0.75 5.281,-0.75c2.042,-0 3.74,0.27 5.094,0.812c1.354,0.542 2.437,1.188 3.25,1.938c0.812,0.75 1.364,1.51 1.656,2.281c0.292,0.771 0.417,1.385 0.375,1.844c-0.083,0.416 -0.292,0.75 -0.625,1c-0.333,0.25 -0.687,0.375 -1.062,0.375l-0.875,-0c-0.584,-0 -0.98,-0.271 -1.188,-0.813c-0.208,-0.5 -0.469,-0.979 -0.781,-1.437c-0.313,-0.459 -0.719,-0.865 -1.219,-1.219c-0.5,-0.354 -1.125,-0.636 -1.875,-0.844c-0.75,-0.208 -1.667,-0.312 -2.75,-0.312c-2.5,-0 -4.542,0.51 -6.125,1.531c-1.583,1.021 -2.542,2.323 -2.875,3.906c-0.125,0.625 -0.125,1.219 0,1.781c0.125,0.563 0.469,1.094 1.031,1.594c0.563,0.5 1.417,0.99 2.563,1.469c1.146,0.479 2.656,0.948 4.531,1.406c1.917,0.458 3.49,1 4.719,1.625c1.229,0.625 2.177,1.344 2.844,2.156c0.666,0.813 1.083,1.698 1.25,2.657c0.166,0.958 0.125,1.979 -0.125,3.062c-0.25,1.25 -0.709,2.417 -1.375,3.5c-0.667,1.083 -1.563,2.031 -2.688,2.844c-1.125,0.812 -2.51,1.448 -4.156,1.906c-1.646,0.458 -3.552,0.688 -5.719,0.688c-2.208,-0 -4.042,-0.292 -5.5,-0.875c-1.458,-0.584 -2.635,-1.271 -3.531,-2.063c-0.896,-0.792 -1.521,-1.594 -1.875,-2.406c-0.354,-0.813 -0.49,-1.427 -0.406,-1.844c0.083,-0.458 0.302,-0.802 0.656,-1.031c0.354,-0.229 0.677,-0.344 0.969,-0.344l0.875,0c0.25,0 0.468,0.042 0.656,0.125c0.187,0.083 0.385,0.313 0.594,0.688c0.541,1.083 1.385,2.041 2.531,2.875c1.146,0.833 2.823,1.25 5.031,1.25c1.25,-0 2.448,-0.125 3.594,-0.375c1.146,-0.25 2.167,-0.605 3.062,-1.063c0.896,-0.458 1.657,-1.042 2.282,-1.75c0.625,-0.708 1.041,-1.542 1.25,-2.5Z"/>
        <path d="M189.644,245.909c2.25,-0 4.166,0.364 5.75,1.093c1.583,0.73 2.843,1.73 3.781,3c0.937,1.271 1.552,2.782 1.844,4.532c0.291,1.75 0.25,3.625 -0.125,5.625c-0.084,0.333 -0.167,0.729 -0.25,1.187c-0.084,0.458 -0.177,0.938 -0.282,1.438c-0.104,0.5 -0.208,0.989 -0.312,1.468c-0.104,0.48 -0.198,0.865 -0.281,1.157c-0.5,2 -1.219,3.875 -2.157,5.625c-0.937,1.75 -2.093,3.26 -3.468,4.531c-1.375,1.271 -2.98,2.271 -4.813,3c-1.833,0.729 -3.875,1.094 -6.125,1.094c-2.167,-0 -4.042,-0.365 -5.625,-1.094c-1.583,-0.729 -2.844,-1.729 -3.781,-3c-0.938,-1.271 -1.563,-2.781 -1.875,-4.531c-0.313,-1.75 -0.281,-3.625 0.094,-5.625c0.041,-0.292 0.104,-0.677 0.187,-1.157c0.083,-0.479 0.177,-0.968 0.281,-1.468c0.105,-0.5 0.219,-0.98 0.344,-1.438c0.125,-0.458 0.229,-0.854 0.313,-1.187c0.5,-2 1.208,-3.875 2.125,-5.625c0.916,-1.75 2.062,-3.261 3.437,-4.532c1.375,-1.27 2.979,-2.27 4.813,-3c1.833,-0.729 3.875,-1.093 6.125,-1.093Zm7.375,14.562c0.625,-3.583 0.302,-6.302 -0.969,-8.156c-1.271,-1.854 -3.406,-2.781 -6.406,-2.781c-1.459,-0 -2.865,0.239 -4.219,0.718c-1.354,0.48 -2.594,1.177 -3.719,2.094c-1.125,0.917 -2.104,2.052 -2.937,3.406c-0.834,1.355 -1.459,2.927 -1.875,4.719c-0.209,0.625 -0.407,1.396 -0.594,2.313c-0.188,0.916 -0.323,1.687 -0.406,2.312c-0.625,3.583 -0.313,6.302 0.937,8.156c1.25,1.855 3.375,2.782 6.375,2.782c1.458,-0 2.865,-0.24 4.219,-0.719c1.354,-0.479 2.594,-1.177 3.719,-2.094c1.125,-0.917 2.104,-2.052 2.937,-3.406c0.833,-1.354 1.479,-2.927 1.938,-4.719c0.166,-0.625 0.343,-1.396 0.531,-2.312c0.187,-0.917 0.344,-1.688 0.469,-2.313Z"/>
        <path d="M232.769,277.659c-0.209,0.916 -0.75,1.375 -1.625,1.375l-1.063,-0c-0.417,-0 -0.729,-0.125 -0.937,-0.375c-0.209,-0.25 -0.271,-0.584 -0.188,-1l3.688,-17.438c0.375,-1.75 0.573,-3.292 0.593,-4.625c0.021,-1.333 -0.198,-2.448 -0.656,-3.344c-0.458,-0.895 -1.198,-1.573 -2.219,-2.031c-1.02,-0.458 -2.385,-0.687 -4.093,-0.687c-3.292,-0 -6.105,0.937 -8.438,2.812c-2.333,1.875 -3.854,4.5 -4.562,7.875l-3.688,17.438c-0.208,0.916 -0.75,1.375 -1.625,1.375l-1.062,-0c-0.417,-0 -0.73,-0.125 -0.938,-0.375c-0.208,-0.25 -0.271,-0.584 -0.187,-1l6.312,-29.75c0.208,-0.917 0.771,-1.375 1.688,-1.375l1.062,-0c0.917,-0 1.271,0.458 1.063,1.375l-0.625,2.937c1.291,-1.458 2.854,-2.646 4.687,-3.562c1.833,-0.917 3.938,-1.375 6.313,-1.375c2.375,-0 4.323,0.354 5.843,1.062c1.521,0.708 2.688,1.688 3.5,2.938c0.813,1.25 1.282,2.729 1.407,4.437c0.125,1.708 -0.021,3.563 -0.438,5.563l-3.812,17.75Z"/>
        <path d="M260.581,245.909c2.75,-0 4.813,0.479 6.188,1.437c1.375,0.958 2.416,2.125 3.125,3.5l0.625,-2.937c0.208,-0.917 0.75,-1.375 1.625,-1.375l1.062,-0c0.417,-0 0.729,0.125 0.938,0.375c0.208,0.25 0.27,0.583 0.187,1l-6.312,29.75c-0.209,0.916 -0.75,1.375 -1.625,1.375l-1.063,-0c-0.417,-0 -0.729,-0.125 -0.937,-0.375c-0.209,-0.25 -0.271,-0.584 -0.188,-1l0.625,-2.938c-0.667,0.708 -1.333,1.365 -2,1.969c-0.667,0.604 -1.417,1.125 -2.25,1.562c-0.833,0.438 -1.771,0.782 -2.812,1.032c-1.042,0.25 -2.25,0.375 -3.625,0.375c-2.417,-0 -4.375,-0.448 -5.875,-1.344c-1.5,-0.896 -2.625,-2.063 -3.375,-3.5c-0.75,-1.438 -1.198,-3.052 -1.344,-4.844c-0.146,-1.792 -0.073,-3.604 0.219,-5.437c0.083,-0.625 0.187,-1.209 0.312,-1.75c0.125,-0.542 0.271,-1.125 0.438,-1.75c0.458,-1.792 1.083,-3.594 1.875,-5.407c0.791,-1.812 1.823,-3.437 3.093,-4.875c1.271,-1.437 2.813,-2.604 4.625,-3.5c1.813,-0.895 3.969,-1.343 6.469,-1.343Zm6.313,19.125c0.166,-0.625 0.354,-1.438 0.562,-2.438c0.208,-1 0.375,-1.812 0.5,-2.437c0.25,-1.25 0.323,-2.511 0.219,-3.782c-0.104,-1.27 -0.427,-2.406 -0.969,-3.406c-0.542,-1 -1.344,-1.823 -2.406,-2.469c-1.063,-0.645 -2.469,-0.968 -4.219,-0.968c-1.708,-0 -3.219,0.323 -4.531,0.968c-1.313,0.646 -2.469,1.5 -3.469,2.563c-1,1.062 -1.844,2.281 -2.531,3.656c-0.688,1.375 -1.24,2.813 -1.656,4.313c-0.209,0.625 -0.365,1.208 -0.469,1.75c-0.104,0.541 -0.198,1.125 -0.281,1.75c-0.25,1.5 -0.365,2.948 -0.344,4.343c0.021,1.396 0.25,2.625 0.687,3.688c0.438,1.062 1.146,1.906 2.125,2.531c0.98,0.625 2.323,0.938 4.032,0.938c1.791,-0 3.406,-0.334 4.843,-1c1.438,-0.667 2.688,-1.532 3.75,-2.594c1.063,-1.063 1.938,-2.24 2.625,-3.531c0.688,-1.292 1.198,-2.584 1.532,-3.875Z"/>
        <path d="M282.019,277.659c-0.209,0.916 -0.75,1.375 -1.625,1.375l-1.063,-0c-0.417,-0 -0.729,-0.125 -0.937,-0.375c-0.209,-0.25 -0.271,-0.584 -0.188,-1l8.875,-41.625c0.208,-0.917 0.75,-1.375 1.625,-1.375l1.063,-0c0.416,-0 0.729,0.125 0.937,0.375c0.208,0.25 0.271,0.583 0.188,1l-8.875,41.625Z"/>
        <path d="M332.644,235.284c5.708,-0 9.812,1.448 12.312,4.343c2.5,2.896 3.208,7.073 2.125,12.532c-0.375,1.875 -0.719,3.531 -1.031,4.968c-0.313,1.438 -0.677,3.094 -1.094,4.969c-0.667,2.875 -1.5,5.375 -2.5,7.5c-1,2.125 -2.281,3.886 -3.844,5.281c-1.562,1.396 -3.448,2.438 -5.656,3.125c-2.208,0.688 -4.875,1.032 -8,1.032l-14.25,-0c-0.417,-0 -0.729,-0.125 -0.937,-0.375c-0.209,-0.25 -0.271,-0.584 -0.188,-1l8.688,-40.938c0.208,-0.958 0.77,-1.437 1.687,-1.437l12.688,-0Zm10.437,17.187c0.417,-2.292 0.563,-4.281 0.438,-5.969c-0.125,-1.687 -0.615,-3.083 -1.469,-4.187c-0.854,-1.104 -2.083,-1.927 -3.688,-2.469c-1.604,-0.542 -3.656,-0.812 -6.156,-0.812l-10.437,-0l-7.75,36.25l10.75,-0c2.5,-0 4.645,-0.25 6.437,-0.75c1.792,-0.5 3.323,-1.282 4.594,-2.344c1.271,-1.063 2.323,-2.448 3.156,-4.156c0.833,-1.709 1.542,-3.792 2.125,-6.25c0.208,-0.917 0.396,-1.75 0.563,-2.5c0.166,-0.75 0.323,-1.469 0.468,-2.157c0.146,-0.687 0.292,-1.395 0.438,-2.125c0.146,-0.729 0.323,-1.573 0.531,-2.531Z"/>
        <path d="M359.581,251.909c-0.875,3.458 -1.625,6.958 -2.25,10.5c-0.833,4.75 -0.427,8.187 1.219,10.312c1.646,2.125 4.385,3.188 8.219,3.188c1.666,-0 3.239,-0.157 4.718,-0.469c1.48,-0.313 2.855,-0.844 4.125,-1.594c1.271,-0.75 2.427,-1.739 3.469,-2.969c1.042,-1.229 1.958,-2.781 2.75,-4.656c0.208,-0.5 0.438,-0.844 0.688,-1.031c0.25,-0.188 0.541,-0.281 0.875,-0.281l1.437,-0c0.375,-0 0.667,0.114 0.875,0.343c0.208,0.23 0.25,0.532 0.125,0.907c-0.458,1.458 -1.125,2.989 -2,4.593c-0.875,1.605 -2.052,3.063 -3.531,4.375c-1.479,1.313 -3.323,2.396 -5.531,3.25c-2.209,0.855 -4.875,1.282 -8,1.282c-2.834,-0 -5.209,-0.427 -7.125,-1.282c-1.917,-0.854 -3.417,-2.031 -4.5,-3.531c-1.084,-1.5 -1.761,-3.281 -2.032,-5.344c-0.27,-2.062 -0.198,-4.323 0.219,-6.781c0.292,-1.708 0.646,-3.542 1.063,-5.5c0.416,-1.958 0.854,-3.833 1.312,-5.625c0.625,-2.417 1.469,-4.667 2.531,-6.75c1.063,-2.083 2.396,-3.875 4,-5.375c1.605,-1.5 3.5,-2.677 5.688,-3.531c2.187,-0.854 4.698,-1.281 7.531,-1.281c2.958,-0 5.417,0.406 7.375,1.218c1.958,0.813 3.49,1.865 4.594,3.157c1.104,1.291 1.823,2.739 2.156,4.343c0.333,1.605 0.375,3.198 0.125,4.782c-0.125,0.833 -0.521,1.25 -1.187,1.25l-1.438,-0c-0.333,-0 -0.656,-0.094 -0.969,-0.282c-0.312,-0.187 -0.427,-0.531 -0.343,-1.031c0.166,-1.75 0.041,-3.239 -0.375,-4.469c-0.417,-1.229 -1.084,-2.229 -2,-3c-0.917,-0.77 -2.052,-1.333 -3.407,-1.687c-1.354,-0.354 -2.864,-0.531 -4.531,-0.531c-3.833,-0 -7.146,1.073 -9.937,3.218c-2.792,2.146 -4.771,5.573 -5.938,10.282Z"/>
        <path d="M403.956,242.721l-7.437,34.938c-0.209,0.916 -0.771,1.375 -1.688,1.375l-1.187,-0c-0.417,-0 -0.73,-0.125 -0.938,-0.375c-0.208,-0.25 -0.271,-0.584 -0.187,-1l8.687,-40.938c0.208,-0.958 0.75,-1.437 1.625,-1.437l1.25,-0c0.417,-0 0.698,0.083 0.844,0.25c0.146,0.166 0.26,0.333 0.344,0.5l15.687,35.687l7.438,-35c0.208,-0.958 0.77,-1.437 1.687,-1.437l1.125,-0c0.958,-0 1.333,0.479 1.125,1.437l-8.687,40.875c-0.209,0.958 -0.75,1.438 -1.625,1.438l-1.25,-0c-0.417,-0 -0.698,-0.084 -0.844,-0.25c-0.146,-0.167 -0.261,-0.334 -0.344,-0.5l-15.625,-35.563Z"/>
        <path d="M470.019,235.284c0.958,-0 1.333,0.479 1.125,1.437l-0.188,0.938c-0.208,0.916 -0.771,1.375 -1.687,1.375l-12.313,-0l-8.25,38.625c-0.208,0.916 -0.771,1.375 -1.687,1.375l-1.125,-0c-0.417,-0 -0.73,-0.125 -0.938,-0.375c-0.208,-0.25 -0.271,-0.584 -0.187,-1l8.25,-38.625l-12.375,-0c-0.417,-0 -0.73,-0.125 -0.938,-0.375c-0.208,-0.25 -0.271,-0.584 -0.187,-1l0.187,-0.938c0.208,-0.958 0.771,-1.437 1.688,-1.437l28.625,-0Z"/>
        <path d="M506.269,234.659c2.458,-0 4.552,0.343 6.281,1.031c1.729,0.687 3.114,1.562 4.156,2.625c1.042,1.062 1.75,2.239 2.125,3.531c0.375,1.292 0.458,2.542 0.25,3.75c-0.083,0.333 -0.208,0.625 -0.375,0.875c-0.167,0.25 -0.479,0.375 -0.937,0.375l-1.5,0c-0.209,0 -0.459,-0.083 -0.75,-0.25c-0.292,-0.167 -0.417,-0.5 -0.375,-1c0.083,-1.042 -0.073,-2 -0.469,-2.875c-0.396,-0.875 -0.99,-1.635 -1.781,-2.281c-0.792,-0.646 -1.75,-1.146 -2.875,-1.5c-1.125,-0.354 -2.375,-0.531 -3.75,-0.531c-1.542,-0 -3.011,0.145 -4.407,0.437c-1.395,0.292 -2.645,0.75 -3.75,1.375c-1.104,0.625 -2.031,1.406 -2.781,2.344c-0.75,0.937 -1.271,2.052 -1.562,3.344c-0.25,1.25 -0.23,2.312 0.062,3.187c0.292,0.875 0.875,1.667 1.75,2.375c0.875,0.708 2.052,1.375 3.531,2c1.48,0.625 3.261,1.292 5.344,2c2.167,0.75 4.031,1.511 5.594,2.281c1.562,0.771 2.812,1.646 3.75,2.625c0.937,0.98 1.552,2.105 1.844,3.375c0.291,1.271 0.25,2.761 -0.125,4.469c-0.834,3.792 -2.771,6.646 -5.813,8.563c-3.042,1.916 -7,2.875 -11.875,2.875c-2.542,-0 -4.729,-0.313 -6.562,-0.938c-1.834,-0.625 -3.334,-1.448 -4.5,-2.469c-1.167,-1.02 -1.99,-2.208 -2.469,-3.562c-0.479,-1.354 -0.636,-2.781 -0.469,-4.281c0.042,-0.334 0.177,-0.625 0.406,-0.875c0.23,-0.25 0.532,-0.375 0.907,-0.375l1.5,-0c0.416,-0 0.708,0.125 0.875,0.375c0.166,0.25 0.25,0.541 0.25,0.875c-0.084,0.875 0.052,1.76 0.406,2.656c0.354,0.896 0.927,1.698 1.719,2.406c0.791,0.708 1.843,1.292 3.156,1.75c1.312,0.458 2.906,0.688 4.781,0.688c4.083,-0 7.281,-0.74 9.594,-2.219c2.312,-1.479 3.739,-3.469 4.281,-5.969c0.25,-1.25 0.198,-2.302 -0.156,-3.156c-0.354,-0.854 -1.021,-1.625 -2,-2.313c-0.979,-0.687 -2.261,-1.343 -3.844,-1.968c-1.583,-0.625 -3.458,-1.313 -5.625,-2.063c-2.083,-0.708 -3.844,-1.458 -5.281,-2.25c-1.438,-0.792 -2.573,-1.677 -3.406,-2.656c-0.834,-0.979 -1.365,-2.115 -1.594,-3.406c-0.229,-1.292 -0.156,-2.792 0.219,-4.5c0.708,-3.167 2.427,-5.75 5.156,-7.75c2.729,-2 6.427,-3 11.094,-3Z"/>
        <path d="M523.644,260.284c0.541,-2.125 1.333,-4.073 2.375,-5.844c1.041,-1.771 2.281,-3.281 3.718,-4.531c1.438,-1.25 3.032,-2.23 4.782,-2.938c1.75,-0.708 3.604,-1.062 5.562,-1.062c4.5,-0 7.667,1.437 9.5,4.312c1.833,2.875 2.25,6.813 1.25,11.813l-0.187,0.937c-0.084,0.417 -0.292,0.75 -0.625,1c-0.334,0.25 -0.709,0.375 -1.125,0.375l-22.25,0c-0.292,1.542 -0.417,3.021 -0.375,4.438c0.041,1.416 0.312,2.656 0.812,3.718c0.5,1.063 1.281,1.917 2.344,2.563c1.062,0.646 2.469,0.969 4.219,0.969c1.625,-0 3.02,-0.167 4.187,-0.5c1.167,-0.334 2.136,-0.719 2.906,-1.157c0.771,-0.437 1.386,-0.885 1.844,-1.343c0.458,-0.459 0.813,-0.813 1.063,-1.063c0.458,-0.542 0.802,-0.864 1.031,-0.969c0.229,-0.104 0.573,-0.156 1.031,-0.156l1,0c0.375,0 0.677,0.115 0.906,0.344c0.23,0.229 0.282,0.531 0.157,0.906c-0.167,0.583 -0.563,1.313 -1.188,2.188c-0.625,0.875 -1.521,1.708 -2.687,2.5c-1.167,0.791 -2.594,1.468 -4.282,2.031c-1.687,0.562 -3.677,0.844 -5.968,0.844c-1.875,-0 -3.573,-0.355 -5.094,-1.063c-1.521,-0.708 -2.771,-1.687 -3.75,-2.937c-0.979,-1.25 -1.677,-2.761 -2.094,-4.532c-0.417,-1.77 -0.458,-3.718 -0.125,-5.843c0.083,-0.625 0.24,-1.459 0.469,-2.5c0.229,-1.042 0.427,-1.875 0.594,-2.5Zm23.625,0.562c0.375,-1.583 0.52,-3.062 0.437,-4.437c-0.083,-1.375 -0.417,-2.573 -1,-3.594c-0.583,-1.021 -1.427,-1.823 -2.531,-2.406c-1.104,-0.584 -2.469,-0.875 -4.094,-0.875c-1.583,-0 -3.062,0.291 -4.437,0.875c-1.375,0.583 -2.625,1.395 -3.75,2.437c-1.125,1.042 -2.073,2.25 -2.844,3.625c-0.771,1.375 -1.323,2.833 -1.656,4.375l19.875,0Z"/>
        <path d="M565.144,250.846c0.958,-1.458 2.239,-2.542 3.843,-3.25c1.605,-0.708 3.469,-1.062 5.594,-1.062l2.313,-0c0.916,-0 1.27,0.458 1.062,1.375l-0.187,0.875c-0.084,0.416 -0.271,0.75 -0.563,1c-0.292,0.25 -0.646,0.375 -1.062,0.375l-2.688,-0c-2.5,-0 -4.635,0.729 -6.406,2.187c-1.771,1.458 -2.927,3.438 -3.469,5.938l-4.125,19.375c-0.208,0.916 -0.771,1.375 -1.687,1.375l-1,-0c-0.417,-0 -0.73,-0.125 -0.938,-0.375c-0.208,-0.25 -0.271,-0.584 -0.187,-1l6.312,-29.688c0.083,-0.417 0.281,-0.76 0.594,-1.031c0.312,-0.271 0.677,-0.406 1.094,-0.406l1,-0c0.416,-0 0.729,0.135 0.937,0.406c0.208,0.271 0.271,0.614 0.188,1.031l-0.625,2.875Z"/>
        <path d="M580.956,248.034c-0.083,-0.542 0.011,-0.927 0.281,-1.157c0.271,-0.229 0.573,-0.343 0.907,-0.343l1.187,-0c0.375,-0 0.688,0.093 0.938,0.281c0.25,0.187 0.416,0.552 0.5,1.094l4.75,26.562l16.312,-27c0.083,-0.167 0.261,-0.364 0.531,-0.594c0.271,-0.229 0.615,-0.343 1.032,-0.343l1.5,-0c0.375,-0 0.677,0.177 0.906,0.531c0.229,0.354 0.156,0.823 -0.219,1.406l-17.625,29c-0.292,0.458 -0.614,0.833 -0.969,1.125c-0.354,0.292 -0.864,0.438 -1.531,0.438l-1.312,-0c-0.667,-0 -1.125,-0.146 -1.375,-0.438c-0.25,-0.292 -0.417,-0.667 -0.5,-1.125l-5.313,-29.437Z"/>
        <path d="M611.769,260.284c0.541,-2.125 1.333,-4.073 2.375,-5.844c1.041,-1.771 2.281,-3.281 3.718,-4.531c1.438,-1.25 3.032,-2.23 4.782,-2.938c1.75,-0.708 3.604,-1.062 5.562,-1.062c4.5,-0 7.667,1.437 9.5,4.312c1.833,2.875 2.25,6.813 1.25,11.813l-0.187,0.937c-0.084,0.417 -0.292,0.75 -0.625,1c-0.334,0.25 -0.709,0.375 -1.125,0.375l-22.25,0c-0.292,1.542 -0.417,3.021 -0.375,4.438c0.041,1.416 0.312,2.656 0.812,3.718c0.5,1.063 1.281,1.917 2.344,2.563c1.062,0.646 2.469,0.969 4.219,0.969c1.625,-0 3.02,-0.167 4.187,-0.5c1.167,-0.334 2.136,-0.719 2.906,-1.157c0.771,-0.437 1.386,-0.885 1.844,-1.343c0.458,-0.459 0.813,-0.813 1.063,-1.063c0.458,-0.542 0.802,-0.864 1.031,-0.969c0.229,-0.104 0.573,-0.156 1.031,-0.156l1,0c0.375,0 0.677,0.115 0.906,0.344c0.23,0.229 0.282,0.531 0.157,0.906c-0.167,0.583 -0.563,1.313 -1.188,2.188c-0.625,0.875 -1.521,1.708 -2.687,2.5c-1.167,0.791 -2.594,1.468 -4.282,2.031c-1.687,0.562 -3.677,0.844 -5.968,0.844c-1.875,-0 -3.573,-0.355 -5.094,-1.063c-1.521,-0.708 -2.771,-1.687 -3.75,-2.937c-0.979,-1.25 -1.677,-2.761 -2.094,-4.532c-0.417,-1.77 -0.458,-3.718 -0.125,-5.843c0.083,-0.625 0.24,-1.459 0.469,-2.5c0.229,-1.042 0.427,-1.875 0.594,-2.5Zm23.625,0.562c0.375,-1.583 0.52,-3.062 0.437,-4.437c-0.083,-1.375 -0.417,-2.573 -1,-3.594c-0.583,-1.021 -1.427,-1.823 -2.531,-2.406c-1.104,-0.584 -2.469,-0.875 -4.094,-0.875c-1.583,-0 -3.062,0.291 -4.437,0.875c-1.375,0.583 -2.625,1.395 -3.75,2.437c-1.125,1.042 -2.073,2.25 -2.844,3.625c-0.771,1.375 -1.323,2.833 -1.656,4.375l19.875,0Z"/>
        <path d="M653.269,250.846c0.958,-1.458 2.239,-2.542 3.843,-3.25c1.605,-0.708 3.469,-1.062 5.594,-1.062l2.313,-0c0.916,-0 1.27,0.458 1.062,1.375l-0.187,0.875c-0.084,0.416 -0.271,0.75 -0.563,1c-0.292,0.25 -0.646,0.375 -1.062,0.375l-2.688,-0c-2.5,-0 -4.635,0.729 -6.406,2.187c-1.771,1.458 -2.927,3.438 -3.469,5.938l-4.125,19.375c-0.208,0.916 -0.771,1.375 -1.687,1.375l-1,-0c-0.417,-0 -0.73,-0.125 -0.938,-0.375c-0.208,-0.25 -0.271,-0.584 -0.187,-1l6.312,-29.688c0.083,-0.417 0.281,-0.76 0.594,-1.031c0.312,-0.271 0.677,-0.406 1.094,-0.406l1,-0c0.416,-0 0.729,0.135 0.937,0.406c0.208,0.271 0.271,0.614 0.188,1.031l-0.625,2.875Z"/>
    </g>
    <g id="v">
        <path d="M750.093,281.965c-0.833,0 -1.402,-0.194 -1.708,-0.583c-0.305,-0.389 -0.514,-0.889 -0.625,-1.5l-8.5,-38.083c-0.222,-0.889 -0.042,-1.639 0.542,-2.25c0.583,-0.611 1.291,-0.917 2.125,-0.917l5.666,-0c0.834,-0 1.403,0.222 1.709,0.667c0.305,0.444 0.514,0.889 0.625,1.333l5.75,25.5l16.416,-25.5c0.278,-0.444 0.667,-0.889 1.167,-1.333c0.5,-0.445 1.167,-0.667 2,-0.667l7.167,-0c0.833,-0 1.403,0.319 1.708,0.958c0.306,0.639 0.264,1.264 -0.125,1.875l-24.917,38.417c-0.333,0.5 -0.736,0.972 -1.208,1.417c-0.472,0.444 -1.125,0.666 -1.958,0.666l-5.834,0Z" style="fill:#00ffe3;fill-rule:nonzero;"/>
        <path d="M834.927,245.382c-0.167,1.056 -0.375,2.222 -0.625,3.5c-0.25,1.278 -0.528,2.583 -0.834,3.917c-0.305,1.333 -0.597,2.639 -0.875,3.916c-0.277,1.278 -0.555,2.445 -0.833,3.5c-0.833,3.223 -1.833,6.209 -3,8.959c-1.167,2.75 -2.736,5.139 -4.708,7.166c-1.972,2.028 -4.459,3.611 -7.459,4.75c-3,1.139 -6.75,1.709 -11.25,1.709c-3.666,-0 -6.791,-0.57 -9.375,-1.709c-2.583,-1.139 -4.638,-2.722 -6.166,-4.75c-1.528,-2.027 -2.528,-4.416 -3,-7.166c-0.472,-2.75 -0.431,-5.736 0.125,-8.959c0.389,-2.111 0.861,-4.514 1.416,-7.208c0.556,-2.694 1.112,-5.097 1.667,-7.208c0.833,-3.223 1.875,-6.236 3.125,-9.042c1.25,-2.806 2.889,-5.236 4.917,-7.292c2.028,-2.055 4.528,-3.68 7.5,-4.875c2.972,-1.194 6.597,-1.791 10.875,-1.791c3.666,-0 6.791,0.569 9.375,1.708c2.583,1.139 4.639,2.722 6.166,4.75c1.528,2.028 2.542,4.417 3.042,7.167c0.5,2.75 0.472,5.736 -0.083,8.958Zm-36.667,14.417c-0.611,4 -0.319,7.097 0.875,9.291c1.195,2.195 3.736,3.292 7.625,3.292c3.889,-0 6.889,-1.097 9,-3.292c2.111,-2.194 3.722,-5.291 4.833,-9.291c0.612,-2.111 1.181,-4.445 1.709,-7c0.528,-2.556 0.958,-4.889 1.291,-7c0.612,-4 0.32,-7.098 -0.875,-9.292c-1.194,-2.194 -3.736,-3.292 -7.625,-3.292c-3.888,0 -6.888,1.098 -9,3.292c-2.111,2.194 -3.722,5.292 -4.833,9.292c-0.611,2.111 -1.18,4.444 -1.708,7c-0.528,2.555 -0.959,4.889 -1.292,7Z" style="fill:#00ffe3;fill-rule:nonzero;"/>
        <path d="M849.51,269.299c0.611,-0 1.083,0.222 1.417,0.666c0.333,0.445 0.444,0.973 0.333,1.584l-1.75,8.166c-0.111,0.611 -0.43,1.139 -0.958,1.584c-0.528,0.444 -1.097,0.666 -1.709,0.666l-7.75,0c-0.611,0 -1.097,-0.222 -1.458,-0.666c-0.361,-0.445 -0.486,-0.973 -0.375,-1.584l1.75,-8.166c0.111,-0.611 0.445,-1.139 1,-1.584c0.556,-0.444 1.139,-0.666 1.75,-0.666l7.75,-0Z" style="fill:#00ffe3;fill-rule:nonzero;"/>
        <path d="M858.093,242.465c-0.277,-0.5 -0.319,-1.055 -0.125,-1.666c0.195,-0.611 0.598,-1.111 1.209,-1.5l21.166,-14.25c0.5,-0.334 1.014,-0.653 1.542,-0.959c0.528,-0.305 1.07,-0.458 1.625,-0.458l6.5,-0c0.611,-0 1.097,0.222 1.458,0.667c0.362,0.444 0.487,0.972 0.375,1.583l-11.5,53.833c-0.111,0.611 -0.43,1.139 -0.958,1.584c-0.528,0.444 -1.097,0.666 -1.708,0.666l-6.75,0c-0.611,0 -1.097,-0.222 -1.459,-0.666c-0.361,-0.445 -0.486,-0.973 -0.375,-1.584l8.417,-39.5l-12.833,8.667c-0.611,0.389 -1.209,0.542 -1.792,0.458c-0.583,-0.083 -1.014,-0.375 -1.292,-0.875l-3.5,-6Z" style="fill:#00ffe3;fill-rule:nonzero;"/>
    </g>
    <g id="hr">
        <path d="M49.687,190.296l434.306,-0l30.74,0.232l416.001,0" style="fill:none;stroke:#b480ff;stroke-width:4.03px;"/>
        <circle id="ball" cx="44.95" cy="190.445" r="11.079" style="fill:#ff00a8;stroke:#fff;stroke-width:1.61px;"/>
        <circle id="ball1" serif:id="ball" cx="927.295" cy="190.349" r="11.079" style="fill:#ff00a8;stroke:#fff;stroke-width:1.61px;"/>
    </g>
    <g id="decent-core">
        <path d="M109.245,37.149c6.784,0 12.49,0.894 17.119,2.681c4.629,1.788 8.273,4.332 10.931,7.632c2.659,3.3 4.4,7.287 5.225,11.962c0.825,4.675 0.78,9.9 -0.137,15.675c-0.55,3.483 -1.169,6.875 -1.856,10.175c-0.688,3.3 -1.536,6.692 -2.544,10.175c-1.558,5.775 -3.735,11 -6.531,15.675c-2.796,4.675 -6.188,8.663 -10.175,11.963c-3.988,3.3 -8.617,5.843 -13.888,7.631c-5.271,1.787 -11.206,2.681 -17.806,2.681l-34.65,0c-1.008,0 -1.81,-0.367 -2.406,-1.1c-0.596,-0.733 -0.802,-1.604 -0.619,-2.612l18.975,-88.825c0.183,-1.009 0.71,-1.88 1.581,-2.613c0.871,-0.733 1.811,-1.1 2.819,-1.1l33.962,0Zm14.575,37.95c0.459,-2.933 0.482,-5.66 0.069,-8.181c-0.412,-2.521 -1.375,-4.721 -2.887,-6.6c-1.513,-1.879 -3.575,-3.346 -6.188,-4.4c-2.612,-1.054 -5.889,-1.581 -9.831,-1.581l-18.425,-0l-13.2,61.875l19.112,-0c3.759,-0 7.128,-0.527 10.107,-1.582c2.979,-1.054 5.591,-2.498 7.837,-4.331c2.246,-1.833 4.102,-4.033 5.569,-6.6c1.467,-2.567 2.612,-5.317 3.437,-8.25c1.009,-3.483 1.857,-6.875 2.544,-10.175c0.688,-3.3 1.306,-6.692 1.856,-10.175Z"/>
        <path d="M150.495,97.099c1.1,-5.133 2.705,-9.923 4.813,-14.369c2.108,-4.445 4.79,-8.318 8.044,-11.618c3.254,-3.3 7.127,-5.89 11.618,-7.769c4.492,-1.879 9.671,-2.819 15.538,-2.819c4.767,0 9.098,0.94 12.994,2.819c3.896,1.879 7.104,4.4 9.625,7.562c2.521,3.163 4.262,6.875 5.225,11.138c0.962,4.262 0.939,8.731 -0.069,13.406l-1.238,6.188c-0.275,1.008 -0.847,1.879 -1.718,2.612c-0.871,0.733 -1.811,1.1 -2.819,1.1l-45.925,0c-0.458,2.108 -0.413,3.965 0.137,5.569c0.55,1.604 1.444,2.956 2.682,4.056c1.237,1.1 2.75,1.925 4.537,2.475c1.788,0.55 3.69,0.825 5.706,0.825c2.934,0 5.386,-0.298 7.357,-0.894c1.971,-0.595 3.643,-1.352 5.018,-2.268c1.1,-0.734 2.017,-1.238 2.75,-1.513c0.734,-0.275 1.65,-0.412 2.75,-0.412l11,-0c1.009,-0 1.811,0.366 2.407,1.1c0.596,0.733 0.756,1.604 0.481,2.612c-0.367,1.283 -1.306,2.933 -2.819,4.95c-1.512,2.017 -3.666,3.988 -6.462,5.913c-2.796,1.925 -6.234,3.575 -10.313,4.95c-4.079,1.375 -8.869,2.062 -14.369,2.062c-4.491,0 -8.639,-0.939 -12.443,-2.819c-3.804,-1.879 -6.967,-4.468 -9.488,-7.768c-2.521,-3.3 -4.285,-7.265 -5.294,-11.894c-1.008,-4.629 -0.916,-9.694 0.275,-15.194Zm37.95,-20.075c-2.658,0 -5.018,0.39 -7.081,1.169c-2.062,0.779 -3.873,1.787 -5.431,3.025c-1.558,1.237 -2.842,2.612 -3.85,4.125c-1.008,1.512 -1.742,2.956 -2.2,4.331l31.075,0c0.092,-1.375 0.046,-2.819 -0.138,-4.331c-0.183,-1.513 -0.71,-2.888 -1.581,-4.125c-0.871,-1.238 -2.154,-2.246 -3.85,-3.025c-1.696,-0.779 -4.01,-1.169 -6.944,-1.169Z"/>
        <path d="M291.708,102.874c0.458,-1.192 1.123,-2.085 1.994,-2.681c0.871,-0.596 1.764,-0.894 2.681,-0.894l11.137,0c1.009,0 1.834,0.344 2.475,1.031c0.642,0.688 0.78,1.582 0.413,2.682c-1.008,3.758 -2.59,7.516 -4.744,11.275c-2.154,3.758 -5.064,7.15 -8.731,10.175c-3.667,3.025 -8.204,5.5 -13.613,7.425c-5.408,1.925 -11.825,2.887 -19.25,2.887c-5.958,0 -11.229,-0.939 -15.812,-2.819c-4.583,-1.879 -8.342,-4.491 -11.275,-7.837c-2.933,-3.346 -4.973,-7.356 -6.119,-12.031c-1.146,-4.675 -1.306,-9.763 -0.481,-15.263c0.55,-3.483 1.26,-7.333 2.131,-11.55c0.871,-4.217 1.811,-8.067 2.819,-11.55c1.467,-5.5 3.506,-10.587 6.119,-15.262c2.612,-4.675 5.843,-8.686 9.693,-12.032c3.85,-3.345 8.342,-5.958 13.475,-7.837c5.134,-1.879 11.046,-2.819 17.738,-2.819c6.783,0 12.558,0.963 17.325,2.888c4.767,1.925 8.594,4.4 11.481,7.425c2.888,3.025 4.881,6.439 5.981,10.243c1.1,3.805 1.375,7.54 0.825,11.207c-0.183,1.1 -0.71,1.993 -1.581,2.681c-0.871,0.687 -1.81,1.031 -2.819,1.031l-11.137,0c-0.917,0 -1.742,-0.298 -2.475,-0.894c-0.733,-0.595 -1.054,-1.489 -0.963,-2.681c0.092,-1.833 -0.16,-3.621 -0.756,-5.362c-0.596,-1.742 -1.627,-3.3 -3.094,-4.675c-1.466,-1.375 -3.437,-2.498 -5.912,-3.369c-2.475,-0.871 -5.5,-1.306 -9.075,-1.306c-3.575,-0 -6.806,0.55 -9.694,1.65c-2.887,1.1 -5.431,2.566 -7.631,4.4c-2.2,1.833 -4.033,4.033 -5.5,6.6c-1.467,2.566 -2.613,5.27 -3.438,8.112c-1.008,3.483 -1.947,7.333 -2.818,11.55c-0.871,4.217 -1.582,8.067 -2.132,11.55c-0.458,2.933 -0.481,5.661 -0.068,8.181c0.412,2.521 1.329,4.698 2.75,6.532c1.421,1.833 3.346,3.3 5.775,4.4c2.429,1.1 5.431,1.65 9.006,1.65c3.575,-0 6.783,-0.436 9.625,-1.307c2.842,-0.87 5.294,-1.993 7.356,-3.368c2.063,-1.375 3.781,-2.934 5.156,-4.675c1.375,-1.742 2.43,-3.53 3.163,-5.363Z"/>
        <path d="M322.508,97.099c1.1,-5.133 2.704,-9.923 4.812,-14.369c2.109,-4.445 4.79,-8.318 8.044,-11.618c3.254,-3.3 7.127,-5.89 11.619,-7.769c4.492,-1.879 9.671,-2.819 15.537,-2.819c4.767,0 9.098,0.94 12.994,2.819c3.896,1.879 7.104,4.4 9.625,7.562c2.521,3.163 4.263,6.875 5.225,11.138c0.963,4.262 0.94,8.731 -0.069,13.406l-1.237,6.188c-0.275,1.008 -0.848,1.879 -1.719,2.612c-0.871,0.733 -1.81,1.1 -2.819,1.1l-45.925,0c-0.458,2.108 -0.412,3.965 0.138,5.569c0.55,1.604 1.444,2.956 2.681,4.056c1.238,1.1 2.75,1.925 4.538,2.475c1.787,0.55 3.689,0.825 5.706,0.825c2.933,0 5.385,-0.298 7.356,-0.894c1.971,-0.595 3.644,-1.352 5.019,-2.268c1.1,-0.734 2.017,-1.238 2.75,-1.513c0.733,-0.275 1.65,-0.412 2.75,-0.412l11,-0c1.008,-0 1.81,0.366 2.406,1.1c0.596,0.733 0.756,1.604 0.481,2.612c-0.366,1.283 -1.306,2.933 -2.818,4.95c-1.513,2.017 -3.667,3.988 -6.463,5.913c-2.796,1.925 -6.233,3.575 -10.312,4.95c-4.079,1.375 -8.869,2.062 -14.369,2.062c-4.492,0 -8.64,-0.939 -12.444,-2.819c-3.804,-1.879 -6.966,-4.468 -9.487,-7.768c-2.521,-3.3 -4.286,-7.265 -5.294,-11.894c-1.008,-4.629 -0.917,-9.694 0.275,-15.194Zm37.95,-20.075c-2.658,0 -5.019,0.39 -7.081,1.169c-2.063,0.779 -3.873,1.787 -5.432,3.025c-1.558,1.237 -2.841,2.612 -3.85,4.125c-1.008,1.512 -1.741,2.956 -2.2,4.331l31.075,0c0.092,-1.375 0.046,-2.819 -0.137,-4.331c-0.183,-1.513 -0.71,-2.888 -1.581,-4.125c-0.871,-1.238 -2.154,-2.246 -3.85,-3.025c-1.696,-0.779 -4.011,-1.169 -6.944,-1.169Z"/>
        <path d="M464.82,129.687c-0.183,1.008 -0.71,1.879 -1.581,2.612c-0.871,0.733 -1.81,1.1 -2.819,1.1l-10.45,0c-1.008,0 -1.81,-0.367 -2.406,-1.1c-0.596,-0.733 -0.802,-1.604 -0.619,-2.612l7.425,-34.925c1.192,-5.5 0.848,-9.9 -1.031,-13.2c-1.879,-3.3 -5.477,-4.95 -10.794,-4.95c-4.858,-0 -9.029,1.65 -12.512,4.95c-3.483,3.3 -5.821,7.7 -7.013,13.2l-7.425,34.925c-0.183,1.008 -0.71,1.879 -1.581,2.612c-0.871,0.733 -1.81,1.1 -2.819,1.1l-10.45,0c-1.008,0 -1.81,-0.367 -2.406,-1.1c-0.596,-0.733 -0.802,-1.604 -0.619,-2.612l13.613,-64.075c0.183,-1.009 0.733,-1.88 1.65,-2.613c0.917,-0.733 1.879,-1.1 2.887,-1.1l10.45,0c1.009,0 1.788,0.367 2.338,1.1c0.55,0.733 0.733,1.604 0.55,2.613l-0.688,3.162c2.384,-2.567 5.248,-4.583 8.594,-6.05c3.346,-1.467 7.219,-2.2 11.619,-2.2c4.858,0 9.029,0.871 12.512,2.613c3.484,1.741 6.211,4.079 8.182,7.012c1.971,2.933 3.231,6.348 3.781,10.244c0.55,3.896 0.367,7.998 -0.55,12.306l-7.838,36.988Z"/>
        <path d="M509.783,107.549c-0.55,2.842 -0.481,5.111 0.206,6.806c0.688,1.696 2.636,2.544 5.844,2.544l11.137,0c1.009,0 1.788,0.367 2.338,1.1c0.55,0.733 0.733,1.604 0.55,2.613l-1.925,9.075c-0.183,1.008 -0.71,1.879 -1.581,2.612c-0.871,0.733 -1.811,1.1 -2.819,1.1l-8.8,0c-8.617,0 -15.01,-2.223 -19.181,-6.669c-4.171,-4.445 -5.386,-10.702 -3.644,-18.768l6.325,-29.563l-9.075,0c-1.008,0 -1.81,-0.367 -2.406,-1.1c-0.596,-0.733 -0.802,-1.604 -0.619,-2.612l1.925,-9.075c0.183,-1.009 0.733,-1.88 1.65,-2.613c0.917,-0.733 1.879,-1.1 2.887,-1.1l9.075,0l4.813,-22.412c0.183,-1.009 0.71,-1.88 1.581,-2.613c0.871,-0.733 1.811,-1.1 2.819,-1.1l10.45,0c1.008,0 1.81,0.367 2.406,1.1c0.596,0.733 0.802,1.604 0.619,2.613l-4.813,22.412l17.738,0c1.008,0 1.787,0.367 2.337,1.1c0.55,0.733 0.734,1.604 0.55,2.613l-1.925,9.075c-0.183,1.008 -0.71,1.879 -1.581,2.612c-0.871,0.733 -1.81,1.1 -2.819,1.1l-17.737,0l-6.325,29.15Z"/>
        <path d="M550.208,100.399c-1.008,0 -1.81,-0.367 -2.406,-1.1c-0.596,-0.733 -0.802,-1.604 -0.619,-2.612l1.925,-9.075c0.183,-1.009 0.733,-1.88 1.65,-2.613c0.917,-0.733 1.879,-1.1 2.887,-1.1l41.938,0c1.008,0 1.787,0.367 2.337,1.1c0.55,0.733 0.734,1.604 0.55,2.613l-1.925,9.075c-0.183,1.008 -0.71,1.879 -1.581,2.612c-0.871,0.733 -1.81,1.1 -2.819,1.1l-41.937,0Z"/>
        <path d="M673.683,102.874c0.458,-1.192 1.123,-2.085 1.994,-2.681c0.871,-0.596 1.764,-0.894 2.681,-0.894l11.137,0c1.009,0 1.834,0.344 2.475,1.031c0.642,0.688 0.78,1.582 0.413,2.682c-1.008,3.758 -2.59,7.516 -4.744,11.275c-2.154,3.758 -5.064,7.15 -8.731,10.175c-3.667,3.025 -8.204,5.5 -13.613,7.425c-5.408,1.925 -11.825,2.887 -19.25,2.887c-5.958,0 -11.229,-0.939 -15.812,-2.819c-4.583,-1.879 -8.342,-4.491 -11.275,-7.837c-2.933,-3.346 -4.973,-7.356 -6.119,-12.031c-1.146,-4.675 -1.306,-9.763 -0.481,-15.263c0.55,-3.483 1.26,-7.333 2.131,-11.55c0.871,-4.217 1.811,-8.067 2.819,-11.55c1.467,-5.5 3.506,-10.587 6.119,-15.262c2.612,-4.675 5.843,-8.686 9.693,-12.032c3.85,-3.345 8.342,-5.958 13.475,-7.837c5.134,-1.879 11.046,-2.819 17.738,-2.819c6.783,0 12.558,0.963 17.325,2.888c4.767,1.925 8.594,4.4 11.481,7.425c2.888,3.025 4.881,6.439 5.981,10.243c1.1,3.805 1.375,7.54 0.825,11.207c-0.183,1.1 -0.71,1.993 -1.581,2.681c-0.871,0.687 -1.81,1.031 -2.819,1.031l-11.137,0c-0.917,0 -1.742,-0.298 -2.475,-0.894c-0.733,-0.595 -1.054,-1.489 -0.963,-2.681c0.092,-1.833 -0.16,-3.621 -0.756,-5.362c-0.596,-1.742 -1.627,-3.3 -3.094,-4.675c-1.466,-1.375 -3.437,-2.498 -5.912,-3.369c-2.475,-0.871 -5.5,-1.306 -9.075,-1.306c-3.575,-0 -6.806,0.55 -9.694,1.65c-2.887,1.1 -5.431,2.566 -7.631,4.4c-2.2,1.833 -4.033,4.033 -5.5,6.6c-1.467,2.566 -2.613,5.27 -3.438,8.112c-1.008,3.483 -1.947,7.333 -2.818,11.55c-0.871,4.217 -1.582,8.067 -2.132,11.55c-0.458,2.933 -0.481,5.661 -0.068,8.181c0.412,2.521 1.329,4.698 2.75,6.532c1.421,1.833 3.346,3.3 5.775,4.4c2.429,1.1 5.431,1.65 9.006,1.65c3.575,-0 6.783,-0.436 9.625,-1.307c2.842,-0.87 5.294,-1.993 7.356,-3.368c2.063,-1.375 3.781,-2.934 5.156,-4.675c1.375,-1.742 2.43,-3.53 3.163,-5.363Z"/>
        <path d="M746.008,60.524c4.675,0 8.937,0.825 12.787,2.475c3.85,1.65 7.105,3.873 9.763,6.669c2.658,2.796 4.606,6.073 5.844,9.831c1.237,3.758 1.535,7.746 0.893,11.963c-0.091,0.825 -0.252,1.879 -0.481,3.162c-0.229,1.283 -0.481,2.567 -0.756,3.85c-0.275,1.283 -0.55,2.544 -0.825,3.781c-0.275,1.238 -0.55,2.269 -0.825,3.094c-1.283,4.217 -2.91,8.113 -4.881,11.688c-1.971,3.575 -4.515,6.668 -7.632,9.281c-3.116,2.612 -6.875,4.675 -11.275,6.187c-4.4,1.513 -9.625,2.269 -15.675,2.269c-4.675,0 -8.937,-0.825 -12.787,-2.475c-3.85,-1.65 -7.081,-3.873 -9.694,-6.669c-2.612,-2.795 -4.537,-6.05 -5.775,-9.762c-1.237,-3.713 -1.581,-7.677 -1.031,-11.894c0.092,-0.825 0.252,-1.856 0.481,-3.094c0.229,-1.237 0.481,-2.498 0.756,-3.781c0.275,-1.283 0.55,-2.567 0.825,-3.85c0.275,-1.283 0.55,-2.337 0.825,-3.162c1.192,-4.217 2.865,-8.136 5.019,-11.757c2.154,-3.62 4.836,-6.737 8.044,-9.35c3.208,-2.612 6.99,-4.675 11.344,-6.187c4.354,-1.513 9.373,-2.269 15.056,-2.269Zm11.412,30.938c0.367,-2.842 0.23,-5.202 -0.412,-7.082c-0.642,-1.879 -1.627,-3.368 -2.956,-4.468c-1.329,-1.1 -2.865,-1.857 -4.607,-2.269c-1.741,-0.413 -3.575,-0.619 -5.5,-0.619c-1.925,0 -3.85,0.206 -5.775,0.619c-1.925,0.412 -3.781,1.169 -5.568,2.269c-1.788,1.1 -3.415,2.589 -4.882,4.468c-1.466,1.88 -2.658,4.24 -3.575,7.082c-0.183,0.733 -0.412,1.65 -0.687,2.75c-0.275,1.1 -0.55,2.245 -0.825,3.437c-0.275,1.192 -0.504,2.361 -0.688,3.506c-0.183,1.146 -0.32,2.04 -0.412,2.682c-0.275,2.841 -0.092,5.202 0.55,7.081c0.642,1.879 1.627,3.369 2.956,4.469c1.329,1.1 2.865,1.856 4.606,2.268c1.742,0.413 3.575,0.619 5.5,0.619c1.925,0 3.85,-0.206 5.775,-0.619c1.925,-0.412 3.782,-1.168 5.569,-2.268c1.788,-1.1 3.415,-2.59 4.881,-4.469c1.467,-1.879 2.613,-4.24 3.438,-7.081c0.183,-0.642 0.412,-1.536 0.687,-2.682c0.275,-1.145 0.55,-2.314 0.825,-3.506c0.275,-1.192 0.505,-2.337 0.688,-3.437c0.183,-1.1 0.321,-2.017 0.412,-2.75Z"/>
        <path d="M827.408,78.399c-5.5,0 -9.717,1.215 -12.65,3.644c-2.933,2.429 -4.996,6.394 -6.188,11.894l-7.7,35.75c-0.183,1.008 -0.71,1.879 -1.581,2.612c-0.871,0.733 -1.81,1.1 -2.819,1.1l-10.45,0c-1.008,0 -1.81,-0.367 -2.406,-1.1c-0.596,-0.733 -0.802,-1.604 -0.619,-2.612l13.613,-64.075c0.183,-1.009 0.733,-1.88 1.65,-2.613c0.917,-0.733 1.879,-1.1 2.887,-1.1l10.45,0c1.009,0 1.788,0.367 2.338,1.1c0.55,0.733 0.733,1.604 0.55,2.613l-0.688,3.162c1.1,-1.192 2.2,-2.223 3.3,-3.094c1.1,-0.87 2.315,-1.581 3.644,-2.131c1.329,-0.55 2.796,-0.962 4.4,-1.237c1.604,-0.275 3.506,-0.413 5.706,-0.413l8.938,0c1.008,0 1.787,0.367 2.337,1.1c0.55,0.733 0.734,1.604 0.55,2.613l-1.925,9.075c-0.183,1.008 -0.71,1.879 -1.581,2.612c-0.871,0.733 -1.81,1.1 -2.819,1.1l-8.937,0Z"/>
        <path d="M842.945,97.099c1.1,-5.133 2.705,-9.923 4.813,-14.369c2.108,-4.445 4.79,-8.318 8.044,-11.618c3.254,-3.3 7.127,-5.89 11.618,-7.769c4.492,-1.879 9.671,-2.819 15.538,-2.819c4.767,0 9.098,0.94 12.994,2.819c3.896,1.879 7.104,4.4 9.625,7.562c2.521,3.163 4.262,6.875 5.225,11.138c0.962,4.262 0.939,8.731 -0.069,13.406l-1.238,6.188c-0.275,1.008 -0.847,1.879 -1.718,2.612c-0.871,0.733 -1.811,1.1 -2.819,1.1l-45.925,0c-0.458,2.108 -0.413,3.965 0.137,5.569c0.55,1.604 1.444,2.956 2.682,4.056c1.237,1.1 2.75,1.925 4.537,2.475c1.788,0.55 3.69,0.825 5.706,0.825c2.934,0 5.386,-0.298 7.357,-0.894c1.971,-0.595 3.643,-1.352 5.018,-2.268c1.1,-0.734 2.017,-1.238 2.75,-1.513c0.734,-0.275 1.65,-0.412 2.75,-0.412l11,-0c1.009,-0 1.811,0.366 2.407,1.1c0.596,0.733 0.756,1.604 0.481,2.612c-0.367,1.283 -1.306,2.933 -2.819,4.95c-1.512,2.017 -3.666,3.988 -6.462,5.913c-2.796,1.925 -6.234,3.575 -10.313,4.95c-4.079,1.375 -8.869,2.062 -14.369,2.062c-4.491,0 -8.639,-0.939 -12.443,-2.819c-3.804,-1.879 -6.967,-4.468 -9.488,-7.768c-2.521,-3.3 -4.285,-7.265 -5.294,-11.894c-1.008,-4.629 -0.916,-9.694 0.275,-15.194Zm37.95,-20.075c-2.658,0 -5.018,0.39 -7.081,1.169c-2.062,0.779 -3.873,1.787 -5.431,3.025c-1.558,1.237 -2.842,2.612 -3.85,4.125c-1.008,1.512 -1.742,2.956 -2.2,4.331l31.075,0c0.092,-1.375 0.046,-2.819 -0.138,-4.331c-0.183,-1.513 -0.71,-2.888 -1.581,-4.125c-0.871,-1.238 -2.154,-2.246 -3.85,-3.025c-1.696,-0.779 -4.01,-1.169 -6.944,-1.169Z"/>
    </g>
</svg>